<?xml version="1.0" encoding="utf-8"?>
<!-- Generator: Adobe Illustrator 28.0.0, SVG Export Plug-In . SVG Version: 6.00 Build 0)  -->
<svg version="1.1" id="Layer_1" xmlns="http://www.w3.org/2000/svg" xmlns:xlink="http://www.w3.org/1999/xlink" x="0px" y="0px"
	 viewBox="0 0 77.3 78.7" style="enable-background:new 0 0 77.3 78.7;" xml:space="preserve">
<style type="text/css">
	.st0{fill:#FFFFFF;}
</style>
<path class="st0" d="M1.8,66.6v-9.5c0-1.9,0.5-3.7,1.5-5.3c0.9-1.6,2.3-2.8,3.9-3.7c3.4-1.7,7-3,10.7-3.9c3.6-0.9,7.3-1.3,11-1.3
	c3.7,0,7.4,0.4,11,1.3c3.6,0.9,7.2,2.2,10.7,3.9c1.6,0.8,2.9,2.1,3.9,3.7c1,1.6,1.5,3.4,1.5,5.3v9.5H1.8z M62.7,66.6V56.4
	c0-2.5-0.7-4.9-2.1-7.2c-1.4-2.3-3.3-4.2-5.9-5.9c5.3,0.6,10.5,2.2,15.2,4.7c2,1.1,3.6,2.4,4.7,3.8c1.1,1.4,1.6,2.9,1.6,4.5v10.2
	H62.7z M28.8,39.5c-3.7,0-6.9-1.3-9.6-4s-4-5.8-4-9.6s1.3-6.9,4-9.6s5.8-4,9.6-4s6.9,1.3,9.6,4c2.7,2.7,4,5.8,4,9.6s-1.3,6.9-4,9.6
	C35.8,38.2,32.6,39.5,28.8,39.5z M62.7,26c0,3.7-1.3,6.9-4,9.6c-2.7,2.7-5.8,4-9.6,4c-0.6,0-1.4-0.1-2.4-0.2
	c-0.8-0.1-1.6-0.3-2.4-0.5c1.5-1.8,2.7-3.8,3.5-6c0.8-2.2,1.2-4.5,1.2-6.9c0-2.4-0.4-4.7-1.2-6.9c-0.8-2.2-2-4.2-3.5-6
	c0.8-0.3,1.6-0.5,2.4-0.6c0.8-0.1,1.6-0.1,2.4-0.1c3.7,0,6.9,1.3,9.6,4C61.4,19,62.7,22.2,62.7,26z"/>
</svg>
